<svg id="Layer_1" data-name="Layer 1" xmlns="http://www.w3.org/2000/svg" xmlns:xlink="http://www.w3.org/1999/xlink" viewBox="0 0 234.88 114.09"><defs><style>.cls-1,.cls-15,.cls-17{fill:none;}.cls-2{clip-path:url(#clip-path);}.cls-3{fill:#e4e4e4;fill-rule:evenodd;opacity:0.6;}.cls-4{fill:#e8495b;}.cls-5{fill:#fff;}.cls-6{fill:#989898;}.cls-7{fill:#533723;opacity:0.08;}.cls-8{fill:#7e7e7f;}.cls-9{fill:url(#linear-gradient);}.cls-10,.cls-11{fill:#e32551;}.cls-10,.cls-12{opacity:0.2;}.cls-11,.cls-14{stroke:#fff;stroke-miterlimit:10;}.cls-11,.cls-14,.cls-15{stroke-width:0.5px;}.cls-12,.cls-13,.cls-14,.cls-16{fill:#d9b118;}.cls-13{opacity:0.4;}.cls-15{stroke:#b2b1b1;}.cls-15,.cls-17{stroke-linecap:round;stroke-linejoin:round;}.cls-17{stroke:#d9b118;stroke-width:0.25px;}.cls-18{fill:#e36c37;}.cls-19{fill:#a4a4a4;}</style><clipPath id="clip-path" transform="translate(-4.04 8.64)"><rect class="cls-1" width="238.77" height="105.45"/></clipPath><linearGradient id="linear-gradient" x1="98.98" y1="42.11" x2="164.2" y2="42.11" gradientUnits="userSpaceOnUse"><stop offset="0" stop-color="#fccf00"/><stop offset="0.01" stop-color="#fcce09"/><stop offset="0.07" stop-color="#fac733"/><stop offset="0.14" stop-color="#f8c255"/><stop offset="0.2" stop-color="#f7be70"/><stop offset="0.26" stop-color="#f6bb83"/><stop offset="0.33" stop-color="#f5ba8e"/><stop offset="0.4" stop-color="#f5b992"/><stop offset="0.83" stop-color="#ec7166"/><stop offset="1" stop-color="#e3334d"/></linearGradient></defs><title>map</title><g class="cls-2"><path class="cls-3" d="M238.92,9.15,192.79,28.5l-3.9-10.88,19.76-7.9L227.41,14l5.46-2.29L148.31-7.47l-.23-1.09h-2.62l.2.88L104.5,10.27l-5.56,7.42L89.17-8.09H85.83L96.95,20.16,88.33,30.27,73.67-8.64H65L96,68.44l-92,37H19.26L98,74.39l12.27,31.07h7.43L104.18,71.51,238.92,15.29Zm-33.77-.26-16.94,6.83L183.94,3.81Zm-19,7.68L158.6,27.66l-3-8.95L183.09,7.89Zm-49.49,7.62-18.27,7.27-3.46-8.9,18.38-7.17Zm-1.51-9.52L149.52,9l3.35,8.68-14.45,5.75ZM117.38,31.83l-5.89,2.34L108,25.23l6.06-2.36Zm-6.86,2.73-4.92,2.12-3.35-9.21,4.95-1.93Zm16.19-4.5,3.2,9.18L109.3,47.55l-3.25-9.37Zm1.76-.69,25.13-9.88,3.11,8.94L131.65,38.54Zm53-26.15,1,2.74-27.53,11-3.11-8.76,6.4-2.5-.45-1.54-6.47,2.55L148.95-4.41ZM146.59-3.42l2.4,11-14.4,5.67-3.74-10Zm-38.3,16.17L128.95,4,132.73,14,101.87,26.11l-1.32-3.48ZM90.52,35.14l7.77-10.25,8.45,23.7L97,52.51ZM102.2,65.89,97.61,54.11l9.71-3.88,4.13,11.85Zm12.05-5-4.38-11.71L130.51,41l4,11.58Zm22-9.09-4-11.57,25.1-10,3.93,11.28Zm26.79-11.06-3.84-11.29,27.56-11,3.82,10.94Z" transform="translate(-4.04 8.64)"/></g><rect class="cls-4" x="160.98" y="8.9" width="40.8" height="12.36"/><path class="cls-5" d="M170.67,6.68V7.91H173v.55h-5.4V7.91H170V6.68h-1.67v-3H169v1h2.68v-1h.68v3Zm1-1.51H169v1h2.68Z" transform="translate(-4.04 8.64)"/><path class="cls-5" d="M174.31,7.71h-.59V3.82h.68V7.13A8.8,8.8,0,0,0,176.17,7l.1.57A12.12,12.12,0,0,1,174.31,7.71Zm2.31,1.22V5.72H175.4V5.15h1.22V3.36h.65V8.93Zm1.2.29v-6h.66v6Z" transform="translate(-4.04 8.64)"/><path class="cls-5" d="M179.24,8.45V7.9h5.4v.55ZM179.93,7V5h3.33V4.25h-3.33V3.7h4V5.58h-3.32v.83h3.5V7Z" transform="translate(-4.04 8.64)"/><path class="cls-5" d="M185,5.19V4.64h3.48v.56ZM186.74,8a1.3,1.3,0,0,1-1.44-1.28,1.32,1.32,0,0,1,1.44-1.28,1.28,1.28,0,1,1,0,2.55Zm-.91-4.44h1.81v.56h-1.81ZM186.74,6a.71.71,0,1,0,0,1.42.69.69,0,0,0,.75-.71A.7.7,0,0,0,186.74,6Zm2.94-.35h.93v.58h-.93V9.22H189v-6h.69Z" transform="translate(-4.04 8.64)"/><path class="cls-5" d="M193.19,9.23v-2h-2.35V6.64h5.4v.56h-2.37v2Zm.34-3.15c-1.29,0-2.1-.52-2.1-1.32s.81-1.3,2.1-1.3,2.1.53,2.1,1.3S194.83,6.08,193.53,6.08Zm0-2.06c-.86,0-1.39.32-1.39.75s.53.75,1.39.75,1.39-.31,1.39-.75S194.39,4,193.53,4Z" transform="translate(-4.04 8.64)"/><path class="cls-5" d="M196.64,8.43V7.88H202v.55Zm4.9-1.87a3.56,3.56,0,0,1-2.2-1.64,3.33,3.33,0,0,1-2.21,1.64L196.8,6c1-.15,2.2-1,2.2-2V3.6h.72V4c0,1,1.3,1.87,2.2,2Z" transform="translate(-4.04 8.64)"/><path class="cls-6" d="M165.22,37.48l-.35-.22A3.25,3.25,0,0,0,165.7,34l-1.7.7-.14-.33,2.13-.88A3.79,3.79,0,0,1,165.22,37.48Zm1.44-2.33-.14-.34,1-.42-.74-1.8.39-.16L169,37l-.39.16-1-2.37Z" transform="translate(-4.04 8.64)"/><path class="cls-6" d="M168.35,32.76l-.13-.32,2.4-1,.13.32Zm3.24.69c-.29.17-.67.36-1.11.58s-1,.46-1.41.64l-.2-.33.63-.26-.65-1.2.37-.21.64,1.26.62-.29L170,32.31l.41-.11.36,1.28a5.5,5.5,0,0,0,.61-.33Zm.41,2.29c-1,.4-1.67.31-1.88-.2s.2-1.07,1.19-1.48,1.67-.31,1.89.21S173,35.33,172,35.74Zm-.55-1.35c-.7.29-1,.65-.91,1s.63.33,1.33,0,1.06-.65.93-1S172.16,34.1,171.44,34.39Zm1-.81-.36-.88-.76.32-.13-.32.76-.32-.21-.51-.76.32-.13-.31.76-.32-.33-.8.39-.16,1.16,2.82Z" transform="translate(-4.04 8.64)"/><path class="cls-6" d="M176.35,32.13l.18.31a14.75,14.75,0,0,1-2.13,1.07l-.37.15-1.25-3,2.16-.89.13.33-1.77.73.39,1,1.67-.69.13.32-1.67.69.45,1.1A12.71,12.71,0,0,0,176.35,32.13Zm.29-1.49.73-.3.14.33-.73.3,1,2.39-.39.16L175.52,29l.39-.16Z" transform="translate(-4.04 8.64)"/><path class="cls-6" d="M179.74,29.51c-1,.4-1.7.32-1.93-.25s.23-1.12,1.21-1.53,1.7-.33,1.93.24S180.73,29.11,179.74,29.51Zm.49,1.69-.38-.91-1.86.76-.13-.33,4.07-1.68.13.33-1.82.75.38.91Zm-2-2.1c.15.37.69.37,1.4.08s1.11-.68,1-1-.7-.37-1.41-.08S178,28.73,178.2,29.11Zm1.06,3.49-.54-1.32.39-.16.41,1L182.2,31l.14.33Z" transform="translate(-4.04 8.64)"/><rect class="cls-7" x="84.72" y="79.75" width="15.41" height="17.46" transform="translate(-30.03 48.65) rotate(-21.49)"/><path class="cls-8" d="M89.8,85.1a11.33,11.33,0,0,1,.68,2.19l-.45.11a9.46,9.46,0,0,0-.58-1.9l-.18-.44-2.94,1.21-.15-.35,3.38-1.38Zm-2.6,4.59L87,89.33l1.1-.45-.69-1.68.42-.17.69,1.68.8-.33-.69-1.68.42-.17.69,1.68,1.63-.67.15.35Z" transform="translate(-4.04 8.64)"/><path class="cls-8" d="M93.88,85.51l.41,1,2-.81.15.35L92,87.83l-.15-.35,2-.81-.4-1L92,86.27,91,83.7l.43-.17.37.89,2.47-1-.37-.89.42-.17,1.05,2.57Zm.49-1.75-2.47,1,.4,1,2.47-1Z" transform="translate(-4.04 8.64)"/><path class="cls-8" d="M92,93.1l.2.33a15.82,15.82,0,0,1-2.29,1.15l-.4.16-1.34-3.26,2.33-1,.14.35-1.9.78.42,1,1.79-.73.14.34L89.27,93l.48,1.18A13.71,13.71,0,0,0,92,93.1Zm.32-1.6.78-.32.15.36-.78.32,1.05,2.57-.42.17-2-4.85.42-.17Z" transform="translate(-4.04 8.64)"/><path class="cls-8" d="M95.08,90.76a1.14,1.14,0,1,1,.85-1.55A1.21,1.21,0,0,1,95.08,90.76Zm.76,2.53-.7-1.71c-.45.21-.88.38-1.31.57l-.21-.34c.58-.24,1.1-.46,1.63-.7s1.14-.53,1.59-.78l.17.32c-.35.2-.92.49-1.44.73l.71,1.74ZM94.38,89c-.49.2-.77.6-.59,1s.66.51,1.15.31.76-.6.58-1A.8.8,0,0,0,94.38,89Zm3.75,3.48-.48-1.16-1.11.45-.14-.35L97.51,91l-1.37-3.34.42-.17,2,4.85Z" transform="translate(-4.04 8.64)"/><path class="cls-6" d="M219.36,27.59a1.14,1.14,0,0,1-2.1.88,1.14,1.14,0,0,1,2.1-.88Zm-1.75.73a.74.74,0,0,0,1,.4.72.72,0,0,0,.42-1,.76.76,0,0,0-1.41.58ZM219,30.81l-.52-1.26.35-.15.4,1,2.34-1,.12.29Zm.55-3.16-.12-.29.67-.28L219.66,26l.35-.15,1.22,2.94-.35.15-.64-1.53Z" transform="translate(-4.04 8.64)"/><path class="cls-6" d="M224.81,26.08a2.38,2.38,0,0,1-1.86-.28,2.24,2.24,0,0,1-1.1,1.53l-.29-.23c.63-.34,1.24-1.09,1-1.67l-1.31.54-.12-.29,3-1.24.12.29-1.3.54c.26.56,1.25.63,1.9.44ZM224,28.89l-.6-1.45-1.64.68-.12-.3,3.65-1.52.12.3-1.65.69.6,1.45Z" transform="translate(-4.04 8.64)"/><path class="cls-6" d="M227.31,24.2a1.13,1.13,0,0,1-2.07.87,1.06,1.06,0,0,1,.63-1.41A1.05,1.05,0,0,1,227.31,24.2Zm-1.72.72a.7.7,0,0,0,1,.38A.73.73,0,1,0,226,24,.7.7,0,0,0,225.59,24.92Zm3.48.18.6,1.45-.35.15-.48-1.16-2.36,1-.12-.29Zm-1.93-1.58.74-.31-.23-.56.35-.15,1,2.38-.35.15-.24-.57-.74.31-.12-.29.73-.31-.27-.66-.73.31Z" transform="translate(-4.04 8.64)"/><path class="cls-9" d="M100,70.87a1,1,0,0,1-.38-1.93L162,43.53l-8.62-25a1,1,0,0,1,.6-1.26l2.44-.91-.56-1.66a1,1,0,1,1,1.89-.64l.88,2.58a1,1,0,0,1-.6,1.26l-2.43.9,8.61,25a1,1,0,0,1-.57,1.25L100.35,70.8A1,1,0,0,1,100,70.87Z" transform="translate(-4.04 8.64)"/><circle class="cls-10" cx="152.32" cy="20.5" r="7.26"/><circle class="cls-10" cx="152.32" cy="20.5" r="4.33"/><circle class="cls-11" cx="152.32" cy="20.5" r="2.7"/><circle class="cls-12" cx="95.65" cy="78.66" r="7.26"/><circle class="cls-13" cx="95.65" cy="78.66" r="4.33"/><circle class="cls-14" cx="95.65" cy="78.66" r="2.7"/><polyline class="cls-15" points="229.94 28.39 233.15 29.85 233.15 29.85 227.3 32.2"/><path class="cls-6" d="M53.77,98.41a3,3,0,0,1-1.55-.83,2.85,2.85,0,0,1-.45,1.77l-.34-.18a2.44,2.44,0,0,0,.31-2.24l-.3-.72.36-.15.29.71a2.3,2.3,0,0,0,1.78,1.28Zm.49-1.53L55.14,99l-.35.15-1.68-4,.35-.15.68,1.63.65-.27.12.29Z" transform="translate(-4.04 8.64)"/><path class="cls-6" d="M54.68,95.16l-.12-.29L56.71,94l.12.29Zm2.9.6c-.26.15-.6.33-1,.52s-.88.41-1.27.58l-.18-.3.56-.24-.59-1.07.33-.19L56,96.2l.56-.26-.38-1.19.36-.1.33,1.15a5.3,5.3,0,0,0,.54-.3ZM58,97.82c-.88.37-1.49.28-1.68-.18s.18-1,1.06-1.33,1.5-.28,1.69.19S58.84,97.46,58,97.82Zm-.5-1.21c-.63.26-.94.59-.82.88s.57.29,1.2,0,.95-.59.83-.87S58.1,96.35,57.46,96.62Zm.89-.73L58,95.09l-.68.29-.12-.28.68-.29-.19-.45-.68.28-.12-.28.68-.29-.3-.72.35-.15,1,2.52Z" transform="translate(-4.04 8.64)"/><path class="cls-6" d="M61,93.25a1.13,1.13,0,0,1-2.07.87,1.06,1.06,0,0,1,.63-1.41A1.05,1.05,0,0,1,61,93.25ZM59.23,94a.7.7,0,0,0,1,.38A.73.73,0,1,0,59.64,93,.7.7,0,0,0,59.23,94Zm3.48.18.6,1.45-.35.15-.48-1.16-2.36,1L60,95.27Zm-1.93-1.58.74-.31-.23-.56.35-.15,1,2.38-.35.15L62,93.51l-.74.31-.12-.29.73-.31-.27-.66-.73.31Z" transform="translate(-4.04 8.64)"/><path class="cls-6" d="M69.3,13l.23.58,1.66-.66.12.29-3.67,1.46-.12-.29,1.65-.66-.23-.58-1.16.46-.56-1.41.35-.14L68,13.17l2.41-1,.11.29Zm-.57,3-.48-1.2.35-.14.36.91,2.45-1,.12.29Z" transform="translate(-4.04 8.64)"/><path class="cls-6" d="M69.14,18.38,69,18.09l2.32-.92.11.29Zm.33-.83-.13-.32,1.17-.47.13.32Zm1.48,2c-.54.22-1.08.1-1.25-.32s.14-.87.69-1.09,1.07-.12,1.25.32S71.51,19.3,71,19.52Zm-.45-1.12c-.34.14-.55.41-.45.66s.44.31.79.17.56-.41.46-.67S70.85,18.26,70.51,18.4ZM70.95,21l-.43-1.07.35-.14.31.78,2.38-.95.12.29Zm.52-3.38.68-.27-.48-1.19L72,16l1.22,3-.35.14-.3-.76-.68.27-.12-.29.68-.27-.21-.52-.68.27Z" transform="translate(-4.04 8.64)"/><path class="cls-6" d="M73.35,22.8a1.13,1.13,0,0,1-2.08.84,1.13,1.13,0,0,1,2.08-.84Zm-1.73.69a.7.7,0,0,0,1,.4A.73.73,0,1,0,72,22.54.7.7,0,0,0,71.62,23.49Zm3.48.23.58,1.46-.35.14-.47-1.17-2.37.95-.12-.29Zm-1.91-1.6.74-.3-.23-.57.35-.14,1,2.39-.35.14-.23-.57-.74.3-.11-.3.74-.29-.27-.67-.74.29Z" transform="translate(-4.04 8.64)"/><polyline class="cls-15" points="41.58 106.76 40.31 110.05 40.31 110.05 46.14 107.64"/><polyline class="cls-15" points="60.72 15.35 62.22 12.15 62.22 12.15 64.52 18.02"/><path class="cls-6" d="M112.53,82.92a2.6,2.6,0,0,1-.95,2.9l-.3-.21a2.3,2.3,0,0,0,1-2.22L110.8,84l-.13-.3Zm1.37,3.79c-.84.36-1.47.28-1.68-.2s.17-1,1-1.35,1.48-.29,1.68.19S114.75,86.35,113.9,86.71Zm-1.32-.35c.13.31.59.32,1.19.06s.92-.6.78-.91-.59-.32-1.2-.06S112.45,86.05,112.58,86.36Zm1.5-2.8.45,1.05-.35.15-1.07-2.47.35-.15.49,1.13.61-.26.13.29Z" transform="translate(-4.04 8.64)"/><path class="cls-6" d="M115.76,89.29a11.74,11.74,0,0,1-1.86,1l-.35.15-.76-1.76.35-.15.63,1.46a9.66,9.66,0,0,0,1.83-1Zm-1,2.92-.62-1.44,2.54-1.09.62,1.44Zm1.7-2.09-1.84.79.37.86,1.84-.79Zm-.33-1.72.45,1-.35.15-1-2.24.35-.15.39.92.61-.26.13.29Z" transform="translate(-4.04 8.64)"/><path class="cls-6" d="M117.36,93.87a1.13,1.13,0,0,1-2.06.89,1.13,1.13,0,0,1,2.06-.89Zm-1.71.74a.7.7,0,0,0,1,.37.73.73,0,1,0-.57-1.33A.7.7,0,0,0,115.65,94.6Zm3.49.13.62,1.44-.35.15-.5-1.15-2.34,1-.12-.29Zm-2-1.55.74-.32-.24-.56.35-.15,1,2.37-.35.15-.24-.56-.74.32-.12-.29.73-.32-.28-.66-.73.32Z" transform="translate(-4.04 8.64)"/><polyline class="cls-15" points="117.69 109.49 116.19 112.69 116.19 112.69 113.89 106.82"/><path class="cls-8" d="M121.95,70.08l.11.29c.61,1.52.32,2.57-.74,3a2.23,2.23,0,0,1-1.17.15v-.43a2.08,2.08,0,0,0,1-.14c.72-.29.94-.9.5-2.14a1.51,1.51,0,0,1-.88.91,1.4,1.4,0,0,1-1.88-.83,1.52,1.52,0,0,1,.81-2.08C120.65,68.39,121.45,68.85,121.95,70.08Zm-2.59.53a.93.93,0,0,0,1.31.61,1.39,1.39,0,0,0,.75-.93l0-.12c-.32-.81-.83-1.23-1.53-1A1,1,0,0,0,119.36,70.61Z" transform="translate(-4.04 8.64)"/><path class="cls-8" d="M122.47,68.91l-.17-.42,4.64-1.86.17.42Zm.93-1.4-.17-.43,2-.82.17.43Zm2.53,2.62.3.76,2.32-.93.17.42-5.13,2.05-.17-.42,2.31-.92-.3-.76c-1,.34-1.72.24-2-.34s.33-1.26,1.43-1.7,2-.39,2.22.25S126.89,69.71,125.93,70.14Zm-.86-1.44c-.66.26-1.23.69-1.07,1.09s.87.32,1.53.05,1.24-.69,1.08-1.09S125.75,68.42,125.08,68.69Z" transform="translate(-4.04 8.64)"/><path class="cls-8" d="M131.57,67.24a3,3,0,0,1-1.95-.83,3,3,0,0,1-.78,2.1l-.46-.26a2.52,2.52,0,0,0,.64-2.6l-.28-.71.5-.2.28.69a2.28,2.28,0,0,0,2.18,1.31Zm-1.17,3-.69-1.74.49-.2.53,1.33L134,68.36l.16.41ZM133,67.64l-.91-2.28-1.21.48-.17-.42,1.21-.48-.57-1.44.49-.2,1.65,4.13Z" transform="translate(-4.04 8.64)"/><path class="cls-8" d="M139,64.21a3,3,0,0,1-2-.83,3.18,3.18,0,0,1-.81,2.16l-.46-.27a2.66,2.66,0,0,0,.65-2.67l-.25-.63.5-.2.25.62a2.3,2.3,0,0,0,2.2,1.32Zm-1.27,3.15-.7-1.75.49-.2.54,1.34,3.3-1.32.16.41Zm2.62-2.65-1.65-4.13.49-.2,1.65,4.13Z" transform="translate(-4.04 8.64)"/><path class="cls-8" d="M143.86,61.08l.32.81L146.5,61l.16.41-5.13,2.05-.16-.41,2.32-.93-.32-.81-1.63.65-.79-2,.49-.2.63,1.57L145.45,60l.16.4Zm-.8,4.2-.67-1.68.49-.2.51,1.27,3.42-1.37.16.41Z" transform="translate(-4.04 8.64)"/><path class="cls-8" d="M146.4,59.22l-.16-.4,3.24-1.29.16.4Zm.47-1.17-.18-.44,1.64-.66.18.44Zm2.08,2.76c-.76.3-1.51.14-1.75-.45s.19-1.22,1-1.52,1.5-.16,1.75.44S149.72,60.5,148.94,60.81Zm-.63-1.57c-.48.19-.77.57-.63.93s.62.43,1.1.24.78-.58.64-.93S148.8,59,148.31,59.24Zm.62,3.62-.6-1.5.49-.2.43,1.08,3.32-1.33.16.41Zm.72-4.73.95-.38-.67-1.66.49-.2,1.71,4.27-.49.2-.43-1.07-.95.38-.16-.4,1-.38-.29-.73-.95.38Z" transform="translate(-4.04 8.64)"/><path class="cls-8" d="M155.07,56a1.58,1.58,0,0,1-2.92,1.17,1.49,1.49,0,0,1,.92-2A1.47,1.47,0,0,1,155.07,56Zm-2.43,1a1,1,0,0,0,1.35.56,1,1,0,1,0-.75-1.89A1,1,0,0,0,152.64,57Zm4.87.32.82,2-.49.2-.65-1.63-3.32,1.33-.16-.41ZM154.83,55l1-.42-.32-.79.49-.2L157.39,57l-.49.2-.32-.8-1,.42-.16-.41,1-.41L156,55l-1,.41Z" transform="translate(-4.04 8.64)"/><path class="cls-8" d="M160.71,57.24l-.05-.45a2.26,2.26,0,0,0,1.12-.12c.72-.29,1-.77.78-1.31s-.76-.65-1.42-.39l-.42.17-.18-.44.39-.16c.57-.23.83-.67.64-1.15s-.63-.58-1.17-.37a2.16,2.16,0,0,0-.84.7l-.24-.39a2.62,2.62,0,0,1,1-.8,1.22,1.22,0,0,1,1.74.55,1.13,1.13,0,0,1-.42,1.35,1.16,1.16,0,0,1,1.44.71c.3.76-.1,1.54-1.07,1.93A2.32,2.32,0,0,1,160.71,57.24Z" transform="translate(-4.04 8.64)"/><path class="cls-8" d="M163.74,54.35l-1.15-2.89.5-.2.41,1,1.64-.65-.41-1,.5-.2,1.15,2.89Zm1.56-2.3-1.64.66.41,1,1.64-.65Zm.07,4.23-.69-1.73.49-.2.53,1.32L169,54.35l.16.41ZM166.2,52l-.17-.42,1-.4-.65-1.63.49-.2,1.66,4.14-.49.2-.84-2.1Z" transform="translate(-4.04 8.64)"/><path class="cls-8" d="M173.45,49.46a3.35,3.35,0,0,1-2.44-.06c-.12.64-.86,1.27-1.71,1.71l-.38-.32c.86-.41,1.64-1,1.66-1.58l-1.7.68-.16-.4,4-1.6.16.4-1.7.68c.4.35,1.46.25,2.3,0Zm-2.75,4.79L170.21,53l3.37-1.35-.18-.45L170,52.58l-.15-.38,1.69-.68-.19-.47-2.31.92-.16-.4L174,49.52l.16.4-2.33.93.19.47,1.68-.67.48,1.2-3.36,1.34.2.49,3.57-1.43.15.38Zm-1-5.57-.16-.4,1.82-.73.16.4Z" transform="translate(-4.04 8.64)"/><path class="cls-8" d="M178.9,47.92l.88-.35.17.42-2.32.93.93,2.33-.49.2-.93-2.33-2.32.92-.17-.42,3.76-1.5a10.7,10.7,0,0,0-.65-2.18l-3.34,1.34-.16-.41,3.86-1.54A12.76,12.76,0,0,1,178.9,47.92Z" transform="translate(-4.04 8.64)"/><circle class="cls-16" cx="105.99" cy="61.2" r="1.98" transform="translate(35.59 172.68) rotate(-87.17)"/><polyline class="cls-17" points="101.95 69.84 107.94 83.73 113.58 81.25"/><circle class="cls-18" cx="191.03" cy="96.53" r="1.85" transform="translate(-26.71 117.09) rotate(-30)"/><path class="cls-19" d="M197.12,95.09h-2v-.4h2.57V95l-1.58,3.72h-.53Z" transform="translate(-4.04 8.64)"/><path class="cls-19" d="M198,98.46l.09-.38a1.9,1.9,0,0,0,.95.29.89.89,0,0,0,1-.93c0-.61-.36-.86-1-.86a2.43,2.43,0,0,0-.84.2l.14-2.11h2v.41h-1.66l-.08,1.22a2.67,2.67,0,0,1,.58-.08c.81,0,1.31.38,1.31,1.23a1.32,1.32,0,0,1-1.42,1.33A2,2,0,0,1,198,98.46Z" transform="translate(-4.04 8.64)"/><path class="cls-19" d="M201.82,95.15l-.74.17v-.28l.95-.44h.25v4.11h-.46Z" transform="translate(-4.04 8.64)"/><path class="cls-19" d="M203.38,96.61v-2.3h.46v.76h1.52v-.76h.46v2.3Zm2-1.17h-1.52v.79h1.52ZM204,99.33V98H207v-.52H204v-.38h3.39v1.24h-2.9V99h3.09v.38Zm2.9-2.51v-2.7h.46v2.7Z" transform="translate(-4.04 8.64)"/><path class="cls-19" d="M211.64,96.21l0,.37a14.25,14.25,0,0,1-2.67.21h-.41V94.52h2.47v.38h-2v1.5A14,14,0,0,0,211.64,96.21Zm-.79,3.15c-1.14,0-1.78-.38-1.78-1s.64-1,1.78-1,1.79.38,1.79,1S212,99.36,210.85,99.36Zm0-1.6c-.82,0-1.31.23-1.31.62s.49.61,1.31.61,1.32-.22,1.32-.61S211.68,97.76,210.85,97.76Zm1.29-.43V94.13h.46v3.21Z" transform="translate(-4.04 8.64)"/><path class="cls-19" d="M217.21,99.37V97.49h-2.13v-.38h4.73v.38h-2.15v1.88Zm2.16-2.75a2.85,2.85,0,0,1-1.93-1.17,2.69,2.69,0,0,1-1.92,1.18l-.21-.38c.86-.09,1.87-.64,1.89-1.37h-1.7V94.5h3.86v.38h-1.68c0,.74,1.1,1.27,1.9,1.36Z" transform="translate(-4.04 8.64)"/><path class="cls-19" d="M223.09,98.27a2.81,2.81,0,0,1-1.31-1.4,3,3,0,0,1-1.33,1.55l-.28-.34A2.45,2.45,0,0,0,221.54,96v-.19h-1.21v-.38h2.88v.38H222V96a2.2,2.2,0,0,0,1.35,1.94ZM221,94.85v-.39h1.58v.39Zm3.31,1.85v2.67h-.46V94.13h.46V96.3h.85v.39Z" transform="translate(-4.04 8.64)"/><path class="cls-19" d="M225.76,98.32l-.28-.36a3.53,3.53,0,0,0,2.15-2.89h-2v-.38h2.46A4.1,4.1,0,0,1,225.76,98.32Zm3.72-2h.86v.39h-.86v2.67H229V94.13h.46Z" transform="translate(-4.04 8.64)"/><path class="cls-19" d="M230.65,97v-.38h4.73V97ZM233,99.34c-1.15,0-1.83-.35-1.83-1s.69-1,1.83-1,1.85.35,1.85,1S234.16,99.34,233,99.34ZM231.31,96V94.26h.46v1.36h3.07V96Zm.34,2.36c0,.41.55.6,1.37.6s1.39-.19,1.39-.6-.55-.6-1.39-.6S231.65,98,231.65,98.36Z" transform="translate(-4.04 8.64)"/><circle class="cls-8" cx="186.99" cy="95.84" r="1.85"/><path class="cls-19" d="M197.81,88.59a3.63,3.63,0,0,1-1.3-1.62,3.47,3.47,0,0,1-1.31,1.74l-.3-.34A2.93,2.93,0,0,0,196.27,86v-1h.47v1a2.69,2.69,0,0,0,1.34,2.23Zm-.19-1.52h1.19v-.92h-1.19v-.38h1.19V84.6h.46v5.24h-.46V87.45h-1.19Z" transform="translate(-4.04 8.64)"/><path class="cls-19" d="M200.14,87.44v-.38h4.73v.38Zm.57,2.32V88.61h3.12v-.43h-3.12v-.36h3.58v1.12h-3.12v.46h3.3v.37Zm0-3.05V84.8h3.53v.37H201.2v.42h3v.35h-3v.42h3.08v.35Z" transform="translate(-4.04 8.64)"/><path class="cls-19" d="M205.49,88.5V85h.46v1.34h1.55V85H208V88.5Zm2-1.75h-1.55v1.37h1.55Zm.67.17v-.39h1V84.6h.46v5.24h-.46V86.92Z" transform="translate(-4.04 8.64)"/><path class="cls-19" d="M210.52,89.12v-.38h4.73v.38Zm4.31-1.44a3.37,3.37,0,0,1-1.95-1.54,3.12,3.12,0,0,1-1.93,1.54l-.24-.39c.85-.17,1.94-1,1.94-1.83V85h.47v.41c0,.86,1.15,1.67,2,1.85Z" transform="translate(-4.04 8.64)"/><path class="cls-19" d="M220.41,88l.05.38a16,16,0,0,1-2.55.19h-.43V85.08H220v.38h-2.05v1.11h1.94v.37h-1.94v1.27A13.7,13.7,0,0,0,220.41,88Zm.9-1.36h.85v.38h-.85v2.78h-.45V84.6h.45Z" transform="translate(-4.04 8.64)"/><path class="cls-19" d="M222.48,87.69V87.3h4.73v.38Zm.62,2V88.18h.46v1.17h3.15v.38Zm0-3.08V84.82h.46v1.45h3.11v.38Z" transform="translate(-4.04 8.64)"/><path class="cls-19" d="M229.25,87.43v-.38h2V86h.46v1H234v.38Zm4.11,2.4a2.72,2.72,0,0,1-1.82-1.15,2.59,2.59,0,0,1-1.79,1.14l-.23-.37c1-.08,1.8-.77,1.8-1.38v-.22h.47v.22c0,.6.91,1.31,1.8,1.39Zm0-4.47a6.29,6.29,0,0,1-.16,1.34l-.44-.07a4.72,4.72,0,0,0,.13-1v-.45h-3.07v-.37h3.54Z" transform="translate(-4.04 8.64)"/><circle class="cls-16" cx="186.99" cy="86.24" r="1.85"/><path class="cls-19" d="M197.86,78a2.53,2.53,0,0,1-1.3-1.28,2.73,2.73,0,0,1-1.33,1.46L195,77.8a2.28,2.28,0,0,0,1.37-1.91V75.3h.46v.57a2,2,0,0,0,1.33,1.75Zm-2,2.1V78.47h.46V79.7h3v.38Zm2.93-1.27V75h.46v3.81Z" transform="translate(-4.04 8.64)"/><path class="cls-19" d="M202.73,77v.75h2.14v.38h-4.73v-.38h2.13V77h-1.5V75.22h.46v1.45h3.11V77Zm-2,3.09V78.58h.46v1.17h3.15v.38Z" transform="translate(-4.04 8.64)"/><path class="cls-19" d="M205.35,76.37V76h3v.37Zm1.52,2.08c-.7,0-1.25-.37-1.25-.91s.54-.91,1.25-.91,1.25.35,1.25.91S207.58,78.45,206.87,78.45Zm0-1.45c-.44,0-.8.21-.8.54s.35.54.8.54.8-.21.8-.54S207.31,77,206.87,77Zm-.77-1.4v-.41h1.51v.41Zm.11,4.48V78.69h.46v1h3.06v.38Zm2.07-3.53h.88V75h.46v3.93h-.46V78h-.88v-.37h.88v-.67h-.88Z" transform="translate(-4.04 8.64)"/><path class="cls-19" d="M213.27,76.57a1.35,1.35,0,0,1-2.69,0,1.27,1.27,0,0,1,1.35-1.27A1.26,1.26,0,0,1,213.27,76.57Zm-2.24,0a.84.84,0,0,0,.89.87.87.87,0,1,0,0-1.74A.84.84,0,0,0,211,76.57Zm3.77,1.8v1.88h-.46v-1.5h-3.06v-.38Zm-1.42-2.63h1V75h.46v3.09h-.46v-.74h-1V77h1v-.86h-1Z" transform="translate(-4.04 8.64)"/><path class="cls-19" d="M217.37,79.35l.1-.38a1.94,1.94,0,0,0,.93.26c.67,0,1-.29,1-.79s-.4-.76-1-.76H218v-.41h.36c.52,0,.88-.26.88-.71s-.32-.66-.81-.66a1.86,1.86,0,0,0-.89.29l-.07-.38a2.22,2.22,0,0,1,1.06-.31c.72,0,1.21.37,1.21,1a1,1,0,0,1-.77.94,1,1,0,0,1,.92,1c0,.7-.57,1.19-1.46,1.19A2,2,0,0,1,217.37,79.35Z" transform="translate(-4.04 8.64)"/><path class="cls-19" d="M220.7,78V75.35h.46v1h1.51v-1h.46V78Zm2-1.33h-1.51v1h1.51Zm-1.29,3.39v-1.6h.46v1.22h3.08v.38Zm2-3.18V76.5h.92V75h.46v3.82h-.46V76.89Z" transform="translate(-4.04 8.64)"/><path class="cls-19" d="M226.27,80.15V79h3.11V78.6h-3.11v-.35h1.56v-.43H225.7v-.37h4.73v.37h-2.15v.43h1.55v1.1h-3.1v.45H230v.35ZM230,77.21a2.87,2.87,0,0,1-1.92-.82,2.65,2.65,0,0,1-1.9.82l-.2-.37c.82-.05,1.64-.31,1.82-.73h-1.57v-.37h3.7v.37h-1.57c.2.41,1.08.67,1.83.72Zm-2.76-1.82V75h1.68v.37Z" transform="translate(-4.04 8.64)"/><path class="cls-19" d="M234.81,77.71h.81v.38h-2.14v2.15H233V78.1h-2.13v-.38h3.47a9.13,9.13,0,0,0,.17-1.94h-3.08v-.38H235A10.94,10.94,0,0,1,234.81,77.71Z" transform="translate(-4.04 8.64)"/></svg>